<svg width="128" height="128" xmlns="http://www.w3.org/2000/svg">

 <g>
  <title>background</title>
  <rect fill="none" id="canvas_background" height="402" width="582" y="-1" x="-1"/>
 </g>
 <g>
  <title fill="#007bff">Layer 1</title>
  <path id="svg_2" fill="#007bff" d="m84,41.5l-10.9,0c5.1,-4.1 8.4,-10.4 8.4,-17.5c0,-12.4 -10.1,-22.5 -22.5,-22.5c-11.2,0 -20.6,8.3 -22.2,19.1c-2.7,-2.5 -6.3,-4.1 -10.3,-4.1c-8.3,0 -15,6.7 -15,15c0,3.8 1.5,7.3 3.9,10l-1.4,0c-1.4,0 -2.5,1.1 -2.5,2.5l0,50c0,1.4 1.1,2.5 2.5,2.5l15,0l0,17.5c0,1.4 1.1,2.5 2.5,2.5s2.5,-1.1 2.5,-2.5l0,-17.5l5,0l0,27.5c0,1.4 1.1,2.5 2.5,2.5s2.5,-1.1 2.5,-2.5l0,-27.5l40,0c1.4,0 2.5,-1.1 2.5,-2.5l0,-50c0,-1.4 -1.1,-2.5 -2.5,-2.5zm-25,-35c9.6,0 17.5,7.9 17.5,17.5s-7.9,17.5 -17.5,17.5c-9.6,0 -17.5,-7.9 -17.5,-17.5s7.8,-17.5 17.5,-17.5zm-14.1,35l-7.2,0c1.2,-1.4 2.2,-3 2.9,-4.7c1.1,1.8 2.6,3.4 4.3,4.7zm-28.4,-10c0,-5.5 4.5,-10 10,-10s10,4.5 10,10s-4.5,10 -10,10s-10,-4.5 -10,-10zm65,60l-65,0l0,-45l65,0l0,45z"/>
  <path id="svg_3" fill="#007bff" d="m94,51.5c-1.4,0 -2.5,1.1 -2.5,2.5l0,30c0,1.4 1.1,2.5 2.5,2.5s2.5,-1.1 2.5,-2.5l0,-30c0,-1.4 -1.1,-2.5 -2.5,-2.5z"/>
  <path id="svg_4" fill="#007bff" d="m115,41.7c-0.9,-0.4 -2,-0.2 -2.7,0.5l-10,10c-0.5,0.5 -0.7,1.1 -0.7,1.8l0,30c0,0.7 0.3,1.3 0.7,1.8l10,10c0.5,0.5 1.1,0.7 1.8,0.7c0.3,0 0.6,-0.1 1,-0.2c0.9,-0.4 1.5,-1.3 1.5,-2.3l0,-50c-0.1,-1 -0.7,-1.9 -1.6,-2.3zm-3.5,46.3l-5,-5l0,-28l5,-5l0,38z"/>
  <path id="svg_5" fill="#007bff" d="m59,31.5c4.1,0 7.5,-3.4 7.5,-7.5s-3.4,-7.5 -7.5,-7.5c-4.1,0 -7.5,3.4 -7.5,7.5s3.4,7.5 7.5,7.5zm0,-10c1.4,0 2.5,1.1 2.5,2.5s-1.1,2.5 -2.5,2.5c-1.4,0 -2.5,-1.1 -2.5,-2.5s1.1,-2.5 2.5,-2.5z"/>
  <g id="svg_8">
   <text xml:space="preserve" text-anchor="start" font-family="'Trebuchet MS', Gadget, sans-serif" font-size="47" id="svg_6" y="77.777137" x="30.494938" stroke-width="0" stroke="#000" fill="#007bff">v</text>
   <text xml:space="preserve" text-anchor="start" font-family="'Trebuchet MS', Gadget, sans-serif" font-size="47" id="svg_7" y="86.807528" x="39.062232" stroke-width="0" stroke="#000" fill="#007bff">J</text>
  </g>
 </g>
</svg>